{"title":"Schramm - 1993 - Jorg Buttgereit","uid":6915468,"size":737179606,"categoryP":"video","categoryS":"movies","magnet":"?xt=urn:btih:697126642f1677f259a206a6ce4532b9703020dc&amp;dn=Schramm+-+1993+-+Jorg+Buttgereit&amp;tr=udp%3A%2F%2Ftracker.openbittorrent.com%3A80&amp;tr=udp%3A%2F%2Fopen.demonii.com%3A1337&amp;tr=udp%3A%2F%2Ftracker.coppersurfer.tk%3A6969&amp;tr=udp%3A%2F%2Fexodus.desync.com%3A6969","seeders":1,"leechers":0,"uploader":"panzerfaust698","files":2,"time":1325010662,"description":"As serial killer Lothar Schramm lies dying in a pool of his own blood, choppy memories of his horrific life flash before his eyes.\n\n\n\nenglish subtitle are permanet in .avi file\n\n\n\n &lt;a href=&quot;\nhttp://www.imdb.com/title/tt0108053&quot; rel=&quot;nofollow&quot; target=&quot;_NEW&quot;&gt;\nhttp://www.imdb.com/title/tt0108053&lt;/a&gt;\n\n\n\n\n\n\n                    \nFormat/Info                              : Audio Video Interleave\nFile size                                : 703 MiB\nDuration                                 : 1h 5mn\nOverall bit rate                         : 1 501 Kbps\n\nVideo\nID                                       : 0\nFormat                                   : MPEG-4 Visual\nFormat settings, BVOP                    : No\nFormat settings, QPel                    : No\nFormat settings, GMC                     : No warppoints\nFormat settings, Matrix                  : Default (H.263)\nCodec ID                                 : DX50\nCodec ID/Hint                            : DivX 5\nDuration                                 : 1h 5mn\nBit rate                                 : 1 332 Kbps\nWidth                                    : 496 pixels\nHeight                                   : 368 pixels\nDisplay aspect ratio                     : 4:3\nFrame rate                               : 23.976 fps\nColor space                              : YUV\nChroma subsampling                       : 4:2:0\nBit depth                                : 8 bits\nScan type                                : Progressive\nCompression mode                         : Lossy\nBits/(Pixel*Frame)                       : 0.304\nStream size                              : 624 MiB (89%)\nWriting library                          : DivX 5.0.3 (UTC 2003-01-24)\n\nAudio\nID                                       : 1\nFormat                                   : MPEG Audio\nFormat version                           : Version 1\nFormat profile                           : Layer 3\nMode                                     : Joint stereo\nMode extension                           : MS Stereo\nCodec ID                                 : 55\nCodec ID/Hint                            : MP3\nDuration                                 : 1h 5mn\nBit rate mode                            : Constant\nBit rate                                 : 160 Kbps\nChannel(s)                               : 2 channels\nSampling rate                            : 44.1 KHz\nCompression mode                         : Lossy\nDelay relative to video                  : 26ms\nStream size                              : 74.9 MiB (11%)\nAlignment                                : Split accross interleaves\nInterleave, duration                     : 42 ms (1.00 video frame)\nTitle                                    : Audio Stream\n","torrent":{"xt":"urn:btih:697126642f1677f259a206a6ce4532b9703020dc","amp;dn":"Schramm+-+1993+-+Jorg+Buttgereit","amp;tr":["udp%3A%2F%2Ftracker.openbittorrent.com%3A80","udp%3A%2F%2Fopen.demonii.com%3A1337","udp%3A%2F%2Ftracker.coppersurfer.tk%3A6969","udp%3A%2F%2Fexodus.desync.com%3A6969"],"infoHash":"697126642f1677f259a206a6ce4532b9703020dc","infoHashBuffer":{"type":"Buffer","data":[105,113,38,100,47,22,119,242,89,162,6,166,206,69,50,185,112,48,32,220]},"announce":[],"urlList":[]}}